<svg xmlns="http://www.w3.org/2000/svg" width="28" height="28" viewBox="0 0 28 28"><g><g><path fill="#ebe9de" d="M27.613 27.606a.912.912 0 0 1-1.276 0l-7.228-7.113a11.803 11.803 0 0 1-7.385 2.579c-6.48 0-11.732-5.17-11.732-11.547C-.008 5.148 5.245-.02 11.724-.02c6.48 0 11.733 5.17 11.734 11.546 0 2.981-1.158 5.69-3.044 7.739l7.2 7.085a.88.88 0 0 1 0 1.257zm-5.961-16.08c0-5.396-4.445-9.77-9.928-9.77-5.482 0-9.927 4.374-9.927 9.77 0 5.395 4.445 9.77 9.927 9.77 5.483 0 9.928-4.375 9.928-9.77z"/></g></g></svg>