<svg width="111" height="44" viewBox="0 0 111 44" fill="none" xmlns="http://www.w3.org/2000/svg">
<g clip-path="url(#clip0)">
<path d="M8.18729 20.2523L3.30294 5.98886V20.2523H0.210938V1.80078H4.78524L9.59313 15.9361L14.401 1.80078H18.8713V20.2523H15.775V5.98886L10.8907 20.2523H8.18729Z" fill="black"/>
<path d="M20.8828 16.5015C20.8828 13.9307 22.8323 12.8007 25.4571 12.2609L29.2244 11.4901V11.2591C29.2244 9.97367 28.5491 9.17764 26.8863 9.17764C25.4061 9.17764 24.6246 9.84555 24.2615 11.1562L21.3245 10.4882C21.9998 8.25139 24.0003 6.50391 27.0159 6.50391C30.2905 6.50391 32.2655 8.04556 32.2655 11.1562V16.9636C32.2655 17.7344 32.6031 17.9655 33.4611 17.8625V20.2527C31.1994 20.509 30.0059 20.0721 29.5366 18.9673C28.6787 19.9188 27.2495 20.4838 25.4826 20.4838C22.8833 20.4859 20.8828 18.9169 20.8828 16.5015ZM29.2244 13.8551L26.2875 14.4726C24.9623 14.7561 23.9748 15.1657 23.9748 16.3734C23.9748 17.4278 24.7542 18.018 25.9498 18.018C27.6126 18.018 29.2244 17.1442 29.2244 15.4997V13.8551Z" fill="black"/>
<path d="M40.8059 17.8625C42.4687 17.8625 43.4816 16.783 43.8724 15.2917L46.5482 16.6275C45.8474 18.8119 43.7683 20.5342 40.8059 20.5342C36.909 20.5342 34.1016 17.6819 34.1016 13.519C34.1016 9.35617 36.9069 6.50391 40.8059 6.50391C43.7428 6.50391 45.7688 8.14847 46.4972 10.3076L43.8724 11.7211C43.4838 10.2572 42.4687 9.15033 40.8059 9.15033C38.6759 9.15033 37.2191 10.7697 37.2191 13.519C37.2191 16.2705 38.6737 17.8625 40.8059 17.8625Z" fill="black"/>
<path d="M51.3732 12.4411L56.6228 6.76178H60.4432L55.2976 12.0042L60.8594 20.2544H57.2471L53.1676 14.1634L51.3753 15.9634V20.2544H48.2578V1.80078H51.3753V12.4411H51.3732Z" fill="black"/>
<path d="M61.0078 16.5015C61.0078 13.9307 62.9573 12.8007 65.5821 12.2609L69.3494 11.4901V11.2591C69.3494 9.97367 68.6741 9.17764 67.0113 9.17764C65.5311 9.17764 64.7497 9.84555 64.3865 11.1562L61.4495 10.4882C62.1248 8.25139 64.1253 6.50391 67.1409 6.50391C70.4155 6.50391 72.3905 8.04556 72.3905 11.1562V16.9636C72.3905 17.7344 72.7281 17.9655 73.5861 17.8625V20.2527C71.3244 20.509 70.1309 20.0721 69.6616 18.9673C68.8037 19.9188 67.3745 20.4838 65.6076 20.4838C63.0083 20.4859 61.0078 18.9169 61.0078 16.5015ZM69.3494 13.8551L66.4125 14.4726C65.0873 14.7561 64.0998 15.1657 64.0998 16.3734C64.0998 17.4278 64.8792 18.018 66.0748 18.018C67.7376 18.018 69.3494 17.1442 69.3494 15.4997V13.8551Z" fill="black"/>
<path d="M75.9378 24.9823C75.2879 24.9823 75.1053 24.9571 74.6636 24.9046V22.3086C75.0798 22.359 75.3134 22.3863 75.702 22.3863C76.7405 22.3863 77.2353 22.1027 77.677 21.0232L78.1973 19.763L73.2344 6.75977H76.509L79.8601 16.2176L83.1347 6.75977H86.3563L80.7435 21.5125C79.9663 23.5688 78.7707 24.9823 75.9378 24.9823Z" fill="black"/>
<path d="M13.4341 41.8145C12.6802 43.0474 10.8624 43.9989 8.41807 43.9989C3.58681 44.001 0 40.1448 0 34.5684C0 28.9668 3.61229 24.9824 8.62618 24.9824C12.4466 24.9824 15.0183 27.0134 16.1608 30.2774L12.9902 31.3317C12.4445 29.1474 10.8857 27.8872 8.65167 27.8872C5.50657 27.8872 3.3256 30.5336 3.3256 34.518C3.3256 38.5023 5.5087 41.1739 8.70476 41.1739C11.4081 41.1739 13.175 39.2731 13.2791 36.6498H8.3671V33.7723H16.4751V43.7175H13.4341V41.8145Z" fill="black"/>
<path d="M24.6138 44.001C20.7679 44.001 18.0391 41.1739 18.0391 36.9858C18.0391 32.7978 20.7679 29.9707 24.6138 29.9707C28.4597 29.9707 31.1886 32.7978 31.1886 36.9858C31.1886 41.1739 28.4597 44.001 24.6138 44.001ZM24.6138 41.4049C26.7183 41.4049 28.0435 39.7352 28.0435 36.9837C28.0435 34.2323 26.7183 32.5625 24.6138 32.5625C22.5093 32.5625 21.1842 34.2323 21.1842 36.9837C21.1842 39.7352 22.5093 41.4049 24.6138 41.4049Z" fill="black"/>
<path d="M39.1294 44.001C35.2835 44.001 32.5547 41.1739 32.5547 36.9858C32.5547 32.7978 35.2835 29.9707 39.1294 29.9707C42.9753 29.9707 45.7042 32.7978 45.7042 36.9858C45.7042 41.1739 42.9753 44.001 39.1294 44.001ZM39.1294 41.4049C41.234 41.4049 42.5591 39.7352 42.5591 36.9837C42.5591 34.2323 41.234 32.5625 39.1294 32.5625C37.0249 32.5625 35.6998 34.2323 35.6998 36.9837C35.6998 39.7352 37.0249 41.4049 39.1294 41.4049Z" fill="black"/>
<path d="M47.0742 36.9834C47.0742 33.1545 49.2573 29.9683 53.0777 29.9683C54.8446 29.9683 56.1442 30.6614 57.0022 31.6654V25.2656H60.1197V43.7171H57.0022V42.3036C56.1442 43.3054 54.8446 44.0007 53.0777 44.0007C49.2573 44.0007 47.0742 40.8123 47.0742 36.9834ZM53.6999 32.6651C51.4383 32.6651 50.2172 34.4126 50.2172 36.9834C50.2172 39.5542 51.4383 41.3017 53.6999 41.3017C55.6218 41.3017 57.0786 39.8882 57.0786 37.3951V36.5991C57.0786 34.0534 55.624 32.6651 53.6999 32.6651Z" fill="black"/>
<path d="M72.2696 30.2246L74.7118 39.1679L77.1285 30.2246H80.2205L76.1155 43.7172H73.4122L70.9169 34.8769L68.4216 43.7172H65.7183L61.6133 30.2246H64.8093L67.277 39.1679L69.6937 30.2246H72.2696Z" fill="black"/>
<path d="M81.6719 25.2656H84.8934V28.4266H81.6719V25.2656ZM84.8425 43.7171H81.725V30.2245H84.8425V43.7171Z" fill="black"/>
<path d="M87.4023 30.2251H90.5198V31.6639C91.2992 30.7649 92.5203 29.9668 94.2871 29.9668C97.1455 29.9668 98.8614 31.9201 98.8614 34.8249V43.7177H95.744V35.7259C95.744 34.0562 95.0686 32.8464 93.3528 32.8464C91.949 32.8464 90.5198 33.8734 90.5198 35.8015V43.7177H87.4023V30.2251Z" fill="black"/>
<path d="M104.173 13.501H110.998V0H97.3477V6.75049H104.173V13.501Z" fill="#1C5E48"/>
<path d="M104.174 13.5005H97.3488V6.75H90.5234V20.251H104.174V13.5005Z" fill="#1C5E48"/>
</g>
<defs>
<clipPath id="clip0">
<rect width="111" height="44" fill="white"/>
</clipPath>
</defs>
</svg>
