<svg width="111" height="44" viewBox="0 0 111 44" fill="none" xmlns="http://www.w3.org/2000/svg">
<path d="M8.18827 20.2523L3.30392 5.98886V20.2523H0.211914V1.80078H4.78621L9.59411 15.9361L14.402 1.80078H18.8723V20.2523H15.776V5.98886L10.8917 20.2523H8.18827Z" fill="black"/>
<path d="M20.8838 16.5015C20.8838 13.9307 22.8333 12.8007 25.4581 12.2609L29.2254 11.4901V11.2591C29.2254 9.97367 28.5501 9.17764 26.8873 9.17764C25.4071 9.17764 24.6256 9.84555 24.2625 11.1562L21.3255 10.4882C22.0008 8.25139 24.0013 6.50391 27.0168 6.50391C30.2915 6.50391 32.2664 8.04556 32.2664 11.1562V16.9636C32.2664 17.7344 32.6041 17.9655 33.462 17.8625V20.2527C31.2004 20.509 30.0069 20.0721 29.5376 18.9673C28.6796 19.9188 27.2504 20.4838 25.4836 20.4838C22.8842 20.4859 20.8838 18.9169 20.8838 16.5015ZM29.2254 13.8551L26.2884 14.4726C24.9633 14.7561 23.9758 15.1657 23.9758 16.3734C23.9758 17.4278 24.7552 18.018 25.9508 18.018C27.6136 18.018 29.2254 17.1442 29.2254 15.4997V13.8551Z" fill="black"/>
<path d="M40.8068 17.8625C42.4696 17.8625 43.4826 16.783 43.8734 15.2917L46.5491 16.6275C45.8483 18.8119 43.7693 20.5342 40.8068 20.5342C36.91 20.5342 34.1025 17.6819 34.1025 13.519C34.1025 9.35617 36.9079 6.50391 40.8068 6.50391C43.7438 6.50391 45.7698 8.14847 46.4982 10.3076L43.8734 11.7211C43.4847 10.2572 42.4696 9.15033 40.8068 9.15033C38.6768 9.15033 37.22 10.7697 37.22 13.519C37.22 16.2705 38.6747 17.8625 40.8068 17.8625Z" fill="black"/>
<path d="M51.3742 12.4411L56.6238 6.76178H60.4442L55.2986 12.0042L60.8604 20.2544H57.2481L53.1686 14.1634L51.3763 15.9634V20.2544H48.2588V1.80078H51.3763V12.4411H51.3742Z" fill="black"/>
<path d="M61.0068 16.5015C61.0068 13.9307 62.9563 12.8007 65.5811 12.2609L69.3485 11.4901V11.2591C69.3485 9.97367 68.6731 9.17764 67.0103 9.17764C65.5302 9.17764 64.7487 9.84555 64.3855 11.1562L61.4485 10.4882C62.1239 8.25139 64.1243 6.50391 67.1399 6.50391C70.4145 6.50391 72.3895 8.04556 72.3895 11.1562V16.9636C72.3895 17.7344 72.7272 17.9655 73.5851 17.8625V20.2527C71.3234 20.509 70.13 20.0721 69.6606 18.9673C68.8027 19.9188 67.3735 20.4838 65.6066 20.4838C63.0073 20.4859 61.0068 18.9169 61.0068 16.5015ZM69.3485 13.8551L66.4115 14.4726C65.0863 14.7561 64.0988 15.1657 64.0988 16.3734C64.0988 17.4278 64.8782 18.018 66.0738 18.018C67.7366 18.018 69.3485 17.1442 69.3485 15.4997V13.8551Z" fill="black"/>
<path d="M75.9407 24.9823C75.2909 24.9823 75.1082 24.9571 74.6665 24.9046V22.3086C75.0827 22.359 75.3163 22.3863 75.705 22.3863C76.7434 22.3863 77.2382 22.1027 77.6799 21.0232L78.2002 19.763L73.2373 6.75977H76.5119L79.863 16.2176L83.1377 6.75977H86.3592L80.7465 21.5125C79.9692 23.5688 78.7736 24.9823 75.9407 24.9823Z" fill="black"/>
<path d="M13.4341 41.8145C12.6802 43.0474 10.8624 43.9989 8.41807 43.9989C3.58681 44.001 0 40.1448 0 34.5684C0 28.9668 3.61229 24.9824 8.62618 24.9824C12.4466 24.9824 15.0183 27.0134 16.1608 30.2774L12.9902 31.3317C12.4445 29.1474 10.8857 27.8872 8.65167 27.8872C5.50657 27.8872 3.3256 30.5336 3.3256 34.518C3.3256 38.5023 5.5087 41.1739 8.70476 41.1739C11.4081 41.1739 13.175 39.2731 13.2791 36.6498H8.3671V33.7723H16.4751V43.7175H13.4341V41.8145Z" fill="black"/>
<path d="M24.6128 44.001C20.767 44.001 18.0381 41.1739 18.0381 36.9858C18.0381 32.7978 20.767 29.9707 24.6128 29.9707C28.4587 29.9707 31.1876 32.7978 31.1876 36.9858C31.1876 41.1739 28.4587 44.001 24.6128 44.001ZM24.6128 41.4049C26.7174 41.4049 28.0425 39.7352 28.0425 36.9837C28.0425 34.2323 26.7174 32.5625 24.6128 32.5625C22.5083 32.5625 21.1832 34.2323 21.1832 36.9837C21.1832 39.7352 22.5083 41.4049 24.6128 41.4049Z" fill="black"/>
<path d="M39.1304 44.001C35.2845 44.001 32.5557 41.1739 32.5557 36.9858C32.5557 32.7978 35.2845 29.9707 39.1304 29.9707C42.9763 29.9707 45.7052 32.7978 45.7052 36.9858C45.7052 41.1739 42.9763 44.001 39.1304 44.001ZM39.1304 41.4049C41.2349 41.4049 42.5601 39.7352 42.5601 36.9837C42.5601 34.2323 41.2349 32.5625 39.1304 32.5625C37.0259 32.5625 35.7008 34.2323 35.7008 36.9837C35.7008 39.7352 37.0259 41.4049 39.1304 41.4049Z" fill="black"/>
<path d="M47.0742 36.9834C47.0742 33.1545 49.2573 29.9683 53.0777 29.9683C54.8446 29.9683 56.1442 30.6614 57.0022 31.6654V25.2656H60.1197V43.7171H57.0022V42.3036C56.1442 43.3054 54.8446 44.0007 53.0777 44.0007C49.2573 44.0007 47.0742 40.8123 47.0742 36.9834ZM53.6999 32.6651C51.4383 32.6651 50.2172 34.4126 50.2172 36.9834C50.2172 39.5542 51.4383 41.3017 53.6999 41.3017C55.6218 41.3017 57.0786 39.8882 57.0786 37.3951V36.5991C57.0786 34.0534 55.624 32.6651 53.6999 32.6651Z" fill="black"/>
<path d="M72.2716 30.2246L74.7138 39.1679L77.1305 30.2246H80.2225L76.1175 43.7172H73.4141L70.9189 34.8769L68.4236 43.7172H65.7202L61.6152 30.2246H64.8113L67.2789 39.1679L69.6956 30.2246H72.2716Z" fill="black"/>
<path d="M81.6709 25.2656H84.8924V28.4266H81.6709V25.2656ZM84.8415 43.7171H81.724V30.2245H84.8415V43.7171Z" fill="black"/>
<path d="M87.4043 30.2251H90.5218V31.6639C91.3012 30.7649 92.5222 29.9668 94.2891 29.9668C97.1475 29.9668 98.8634 31.9201 98.8634 34.8249V43.7177H95.7459V35.7259C95.7459 34.0562 95.0706 32.8464 93.3547 32.8464C91.951 32.8464 90.5218 33.8734 90.5218 35.8015V43.7177H87.4043V30.2251Z" fill="black"/>
<path d="M104.175 13.501H111V0H97.3496V6.75049H104.175V13.501Z" fill="#1C5E48"/>
<path d="M104.175 13.5005H97.3498V6.75H90.5244V20.251H104.175V13.5005Z" fill="#1C5E48"/>
</svg>
